<?xml version="1.0" encoding="UTF-8" standalone="no"?><!DOCTYPE svg PUBLIC "-//W3C//DTD SVG 1.1//EN" "http://www.w3.org/Graphics/SVG/1.1/DTD/svg11.dtd"><svg width="100%" height="100%" viewBox="0 0 32 32" version="1.1" xmlns="http://www.w3.org/2000/svg" xmlns:xlink="http://www.w3.org/1999/xlink" xml:space="preserve" xmlns:serif="http://www.serif.com/" style="fill-rule:evenodd;clip-rule:evenodd;stroke-linejoin:round;stroke-miterlimit:2;"><path d="M32,8c0,-4.415 -3.585,-8 -8,-8l-16,0c-4.415,0 -8,3.585 -8,8l0,16c0,4.415 3.585,8 8,8l16,0c4.415,0 8,-3.585 8,-8l0,-16Zm-6.588,16.406c-1.169,0 -2.141,-0.212 -2.918,-0.637c-0.777,-0.425 -1.361,-0.976 -1.753,-1.653c-0.392,-0.677 -0.621,-1.414 -0.687,-2.211l1.274,-0c0.08,0.929 0.452,1.719 1.116,2.37c0.664,0.651 1.66,0.976 2.988,0.976c0.677,0 1.285,-0.126 1.822,-0.378c0.538,-0.253 0.96,-0.605 1.265,-1.056c0.306,-0.452 0.458,-0.963 0.458,-1.534c0,-0.797 -0.252,-1.417 -0.757,-1.862c-0.504,-0.445 -1.215,-0.78 -2.131,-1.006l-1.852,-0.438c-1.182,-0.293 -2.095,-0.737 -2.739,-1.335c-0.644,-0.598 -0.966,-1.401 -0.966,-2.41c-0,-0.797 0.195,-1.494 0.587,-2.092c0.392,-0.597 0.936,-1.059 1.634,-1.384c0.697,-0.325 1.477,-0.488 2.34,-0.488c1.461,-0 2.58,0.402 3.356,1.205c0.777,0.803 1.232,1.783 1.365,2.938l-1.235,0c-0.08,-0.837 -0.408,-1.547 -0.986,-2.131c-0.578,-0.585 -1.418,-0.877 -2.52,-0.877c-1.049,0 -1.866,0.263 -2.45,0.787c-0.584,0.525 -0.876,1.179 -0.876,1.962c-0,0.677 0.222,1.222 0.667,1.634c0.445,0.411 1.112,0.723 2.002,0.936l1.912,0.458c1.222,0.292 2.175,0.77 2.859,1.434c0.683,0.664 1.025,1.54 1.025,2.629c0,0.757 -0.196,1.454 -0.587,2.092c-0.392,0.637 -0.953,1.142 -1.683,1.514c-0.731,0.372 -1.574,0.557 -2.53,0.557Zm-12.968,0c-1.46,0 -2.719,-0.358 -3.774,-1.075c-1.056,-0.717 -1.856,-1.653 -2.401,-2.809c-0.544,-1.155 -0.816,-2.383 -0.816,-3.685c-0,-1.301 0.272,-2.53 0.816,-3.685c0.545,-1.155 1.345,-2.091 2.401,-2.808c1.055,-0.718 2.314,-1.076 3.774,-1.076c1.461,-0 2.723,0.358 3.785,1.076c1.062,0.717 1.863,1.653 2.4,2.808c0.538,1.155 0.807,2.384 0.807,3.685c0,1.302 -0.272,2.53 -0.817,3.685c-0.544,1.156 -1.344,2.092 -2.4,2.809c-1.056,0.717 -2.314,1.075 -3.775,1.075Zm-8.306,-0.199l-1.215,0l0,-10.557l1.215,0l0,10.557Zm8.306,-0.976c1.063,0 2.032,-0.265 2.909,-0.797c0.876,-0.531 1.567,-1.281 2.071,-2.25c0.505,-0.97 0.757,-2.085 0.757,-3.347c0,-1.261 -0.252,-2.377 -0.757,-3.346c-0.504,-0.97 -1.195,-1.72 -2.071,-2.251c-0.877,-0.531 -1.846,-0.797 -2.909,-0.797c-1.062,0 -2.028,0.266 -2.898,0.797c-0.87,0.531 -1.557,1.281 -2.061,2.251c-0.505,0.969 -0.757,2.085 -0.757,3.346c-0,1.262 0.252,2.377 0.757,3.347c0.504,0.969 1.191,1.719 2.061,2.25c0.87,0.532 1.836,0.797 2.898,0.797Zm-8.923,-11.633c-0.266,0 -0.488,-0.093 -0.668,-0.278c-0.179,-0.186 -0.269,-0.405 -0.269,-0.658c0,-0.265 0.09,-0.488 0.269,-0.667c0.18,-0.179 0.402,-0.269 0.668,-0.269c0.265,0 0.488,0.09 0.667,0.269c0.179,0.179 0.269,0.402 0.269,0.667c-0,0.253 -0.09,0.472 -0.269,0.658c-0.179,0.185 -0.402,0.278 -0.667,0.278Z" style="fill:#78b2bb;"/></svg>