<?xml version="1.0" encoding="UTF-8" standalone="no"?><!DOCTYPE svg PUBLIC "-//W3C//DTD SVG 1.1//EN" "http://www.w3.org/Graphics/SVG/1.1/DTD/svg11.dtd"><svg width="100%" height="100%" viewBox="0 0 216 256" version="1.1" xmlns="http://www.w3.org/2000/svg" xmlns:xlink="http://www.w3.org/1999/xlink" xml:space="preserve" xmlns:serif="http://www.serif.com/" style="fill-rule:evenodd;clip-rule:evenodd;stroke-linejoin:round;stroke-miterlimit:2;"><path id="body_base" d="M106.95,-0c8.66,-0 17.18,2.62 23.96,7.54c4.25,3.08 7.83,7.04 10.65,11.47c2.41,3.78 4.28,7.91 5.45,12.23c3.29,12.71 -0.36,29.3 4.06,43.32c2.257,7.14 4.984,11.968 8.101,17.329c1.343,1.999 0.924,1.533 3.369,4.991c1.18,1.68 2.63,3.4 3.84,5.06c3.48,4.78 8.18,8.59 11.5,13.48c3.38,4.98 6.22,10.34 8.44,15.96c3.01,7.63 5.38,15.53 6.79,23.62c1.03,5.93 1.6,12.08 0.43,17.95c-0.634,3.156 -1.269,6.56 -2.545,9.593c1.233,0.407 2.443,0.986 3.355,1.917c0.73,0.74 1.24,1.67 1.62,2.64c0.57,1.44 0.88,2.98 1.01,4.52c0.11,1.37 0.09,2.76 0.35,4.11c0.43,2.21 1.6,4.24 3.04,5.97c1.45,1.74 3.18,3.21 4.91,4.66c1.73,1.45 3.46,2.89 5.32,4.16c0.87,0.6 1.77,1.16 2.6,1.81c0.83,0.66 1.59,1.42 2.11,2.34c0.45,0.81 0.69,1.72 0.69,2.65c0,0.52 -0.07,1.04 -0.23,1.56c-0.45,1.43 -1.28,2.82 -2.3,4.04c-2.26,2.68 -5.4,4.45 -8.53,6.05c-5.33,2.71 -10.86,5.1 -15.87,8.37c-3.36,2.19 -6.46,4.76 -9.36,7.53c-2.48,2.37 -4.83,4.9 -7.61,6.91c-2.81,2.03 -6.05,3.5 -9.48,4.01c-0.95,0.14 -1.9,0.21 -2.86,0.21c-3.24,0 -6.48,-0.78 -9.46,-2.08c-2.7,-1.17 -5.3,-2.86 -6.86,-5.36c-0.313,-0.505 -0.577,-1.032 -0.8,-1.576c-2.307,-0.563 -4.606,-1.176 -6.91,-1.734c-4.06,-0.99 -8.16,-1.8 -12.29,-2.43c-12.19,-1.76 -26.85,-2.84 -39.99,-0.15c-0.704,0.147 -1.408,0.297 -2.111,0.45c-0.328,1.11 -0.758,2.19 -1.289,3.22c-1.52,2.95 -3.86,5.48 -6.7,7.19c-2.84,1.71 -5.83,2.47 -9.15,2.47c-5.27,0 -10.42,-2.83 -15.32,-4.78c-9.98,-3.98 -20.82,-5.22 -31.11,-8.32c-3.16,-0.95 -6.27,-2.08 -9.45,-2.95c-1.42,-0.39 -2.85,-0.73 -4.19,-1.34c-1.34,-0.6 -2.59,-1.51 -3.33,-2.77c-0.57,-0.98 -0.8,-2.13 -0.8,-3.26c0,-1.14 0.28,-2.26 0.67,-3.32c0.77,-2.13 2.02,-4.06 2.86,-6.17c1.37,-3.44 1.62,-7.23 1.43,-10.93c-0.18,-3.69 -0.78,-7.36 -1.03,-11.05c-0.12,-1.65 -0.16,-3.32 0.16,-4.95c0.31,-1.62 1.01,-3.21 2.2,-4.35c1.1,-1.06 2.55,-1.69 4.05,-2c1.49,-0.31 3.03,-0.32 4.55,-0.29c1.52,0.03 3.05,0.12 4.57,-0.01c1.52,-0.12 3.05,-0.46 4.37,-1.22c1.26,-0.72 2.29,-1.79 3.14,-2.96c0.85,-1.17 1.54,-2.45 2.25,-3.72c0.636,-1.144 1.296,-2.288 2.109,-3.328c-0.407,-1.033 -0.76,-2.087 -1.039,-3.162c-0.64,-2.43 -0.87,-4.99 -0.46,-7.47c0.52,-3.14 2.04,-6 3.54,-8.81c2.05,-3.85 4.11,-7.71 5.98,-11.66c2.02,-4.28 3.82,-8.68 5.14,-13.22c1.17,-4 1.97,-8.13 3.68,-11.93c3.44,-7.49 9.71,-14.2 15.81,-21.12c2.278,-2.859 5.927,-6.417 7.312,-8.736c0.939,-1.768 1.672,-3.635 2.068,-5.664c0.49,-3.91 0.01,-6.13 -0.25,-9.93c-0.99,-12.49 -1.62,-26.27 -1.29,-39.41c0.18,-6.92 1.32,-13.2 4.24,-19.08c2.91,-5.88 7.65,-10.86 13.43,-13.97c5.44,-2.94 11.46,-4.12 17.46,-4.12Zm20.963,78.022c-0.463,0.523 -1.076,0.923 -1.713,1.228c-0.92,0.43 -1.91,0.68 -2.86,1.03c-4.37,1.61 -7.68,5.19 -11.65,7.63c-2.08,1.29 -4.35,2.26 -6.7,2.95c-2.54,0.75 -5.2,1.17 -7.83,0.91c-2.24,-0.23 -4.44,-0.96 -6.28,-2.26c-2.61,-1.83 -4.34,-4.62 -6.29,-7.14c-1.042,-1.341 -2.175,-2.627 -3.469,-3.715c-0.226,1.16 -0.322,2.348 -0.371,3.535c-0.11,2.89 0.07,5.83 -0.7,8.62c-0.82,2.98 -2.65,5.57 -4.44,8.08c-3.11,4.36 -6.25,8.84 -7.78,13.97c-0.93,3.1 -1.24,6.39 -0.91,9.62c-3.47,5.1 -6.48,10.53 -8.98,16.18c-3.78,8.57 -6.37,17.69 -7.28,27.01c-1.12,11.41 0.34,23.15 4.85,33.69c3.25,7.63 8.11,14.6 14.38,20.04c3.18,2.76 6.72,5.11 10.5,6.97c13.11,6.45 29.31,6.46 42.2,-0.41c6.74,-3.59 12.43,-8.84 17.91,-14.15c3.3,-3.2 6.59,-6.48 9.11,-10.32c4.85,-7.41 6.54,-16.41 7.59,-25.2c1.83,-15.36 1.89,-31.6 -4.85,-45.53c-2.32,-4.8 -5.41,-9.22 -9.12,-13.05c-0.98,-6.7 -2.93,-13.27 -5.76,-19.42c-2.05,-4.45 -4.54,-8.68 -6.44,-13.18c-0.78,-1.85 -1.46,-3.75 -2.32,-5.56c-0.249,-0.517 -0.513,-1.029 -0.797,-1.528Zm-32.744,-21.42c0.065,-0.791 0.083,-1.587 0.071,-2.382c-0.04,-2.38 -0.35,-4.77 -1.09,-7.03c-0.75,-2.26 -1.94,-4.4 -3.6,-6.11c-0.8,-0.83 -1.72,-1.55 -2.75,-2.06c-1.04,-0.51 -2.2,-0.8 -3.35,-0.74c-1.53,0.08 -3,0.79 -4.12,1.84c-1.13,1.05 -1.92,2.43 -2.41,3.88c-0.97,2.92 -0.75,6.08 -0.53,9.15c0.2,2.77 0.41,5.6 1.45,8.18c0.52,1.3 1.25,2.51 2.22,3.51c0.25,0.255 0.517,0.495 0.799,0.717c0.659,-0.579 1.355,-1.117 2.081,-1.607c0.61,-0.717 1.263,-1.397 1.954,-2.035c-0.266,-0.069 -0.526,-0.166 -0.774,-0.285c-0.76,-0.37 -1.42,-0.93 -1.99,-1.55c-0.88,-0.95 -1.61,-2.06 -2.05,-3.28c-0.66,-1.84 -0.65,-3.87 -0.33,-5.81c0.15,-0.88 0.36,-1.76 0.77,-2.55c0.41,-0.79 1.04,-1.49 1.85,-1.86c0.73,-0.33 1.58,-0.38 2.36,-0.19c0.78,0.18 1.5,0.59 2.12,1.11c1.28,1.08 2.11,2.63 2.6,4.24c0.687,2.201 0.799,4.6 0.119,6.802c1.177,-0.65 2.41,-1.201 3.681,-1.642c0.304,-0.106 0.611,-0.205 0.919,-0.298Zm30.313,8.007c1.155,-1.024 2.077,-2.326 2.728,-3.729c0.96,-2.08 1.37,-4.37 1.5,-6.66c0.16,-2.9 -0.12,-5.86 -1.08,-8.61c-1.04,-2.99 -2.92,-5.75 -5.58,-7.47c-1.32,-0.86 -2.83,-1.45 -4.4,-1.67c-1.57,-0.22 -3.19,-0.05 -4.67,0.52c-0.84,0.33 -1.62,0.78 -2.37,1.29c-2.39,1.65 -4.4,3.94 -5.38,6.68c-1.24,3.45 -0.77,7.31 0.43,10.77c0.149,0.433 0.31,0.864 0.484,1.289c1.001,0.426 1.973,0.927 2.936,1.441c1.121,0.603 2.236,1.224 3.368,1.812c-0.806,-0.807 -1.399,-1.823 -1.778,-2.902c-0.45,-1.28 -0.6,-2.65 -0.55,-4c0.07,-1.81 0.52,-3.63 1.55,-5.12c0.51,-0.75 1.16,-1.4 1.92,-1.88c0.77,-0.48 1.65,-0.79 2.55,-0.85c0.84,-0.06 1.69,0.09 2.49,0.38c1.83,0.67 3.35,2.1 4.24,3.84c0.9,1.74 1.18,3.76 0.93,5.69c-0.14,1.1 -0.46,2.18 -0.98,3.15c-0.52,0.98 -1.25,1.85 -2.16,2.48c-1.14,0.79 -2.54,1.19 -3.93,1.13c-0.061,-0.003 -0.123,-0.007 -0.184,-0.012c2.027,0.824 4.116,1.498 6.244,2.012c0.563,0.139 1.132,0.265 1.692,0.419Z" style="fill:#78b2bb;fill-rule:nonzero;"/></svg>