<?xml version="1.0" encoding="UTF-8" standalone="no"?><!DOCTYPE svg PUBLIC "-//W3C//DTD SVG 1.1//EN" "http://www.w3.org/Graphics/SVG/1.1/DTD/svg11.dtd"><svg width="100%" height="100%" viewBox="0 0 27 32" version="1.1" xmlns="http://www.w3.org/2000/svg" xmlns:xlink="http://www.w3.org/1999/xlink" xml:space="preserve" xmlns:serif="http://www.serif.com/" style="fill-rule:evenodd;clip-rule:evenodd;stroke-linejoin:round;stroke-miterlimit:2;"><clipPath id="_clip1"><rect id="macos" x="0" y="0" width="26.048" height="32"/></clipPath><g clip-path="url(#_clip1)"><path d="M25.219,10.909c-0.185,0.144 -3.462,1.99 -3.462,6.096c-0,4.749 4.169,6.429 4.294,6.47c-0.019,0.103 -0.662,2.301 -2.198,4.541c-1.37,1.971 -2.8,3.939 -4.976,3.939c-2.176,0 -2.736,-1.264 -5.248,-1.264c-2.448,0 -3.319,1.306 -5.309,1.306c-1.99,-0 -3.379,-1.824 -4.976,-4.064c-1.85,-2.631 -3.344,-6.717 -3.344,-10.595c-0,-6.221 4.045,-9.52 8.026,-9.52c2.115,-0 3.878,1.388 5.206,1.388c1.264,0 3.235,-1.472 5.642,-1.472c0.912,0 4.188,0.084 6.345,3.175Zm-7.488,-5.808c0.995,-1.181 1.699,-2.819 1.699,-4.458c0,-0.227 -0.019,-0.457 -0.06,-0.643c-1.62,0.061 -3.546,1.078 -4.708,2.426c-0.912,1.036 -1.763,2.675 -1.763,4.336c0,0.249 0.042,0.499 0.061,0.579c0.102,0.019 0.269,0.041 0.435,0.041c1.453,0 3.28,-0.972 4.336,-2.281Z" style="fill:#78b2bb;fill-rule:nonzero;"/></g></svg>