<?xml version="1.0" encoding="UTF-8" standalone="no"?><!DOCTYPE svg PUBLIC "-//W3C//DTD SVG 1.1//EN" "http://www.w3.org/Graphics/SVG/1.1/DTD/svg11.dtd"><svg width="100%" height="100%" viewBox="0 0 292 345" version="1.1" xmlns="http://www.w3.org/2000/svg" xmlns:xlink="http://www.w3.org/1999/xlink" xml:space="preserve" xmlns:serif="http://www.serif.com/" style="fill-rule:evenodd;clip-rule:evenodd;stroke-linejoin:round;stroke-miterlimit:2;"><path d="M240.95,115.658l0,137.94c0,12.698 -10.309,23.007 -23.007,23.007l-15.269,0l0,47.061c0,11.774 -9.559,21.334 -21.334,21.334c-11.774,-0 -21.334,-9.56 -21.334,-21.334l0,-47.061l-28.445,0l-0,47.061c-0,11.774 -9.56,21.334 -21.335,21.334c-11.774,0 -21.334,-9.56 -21.334,-21.334l0,-47.061l-15.268,0c-12.698,0 -23.008,-10.309 -23.008,-23.007l0,-137.94l190.334,-0Zm-198.282,17.674l0,88.892c0,11.775 -9.559,21.334 -21.334,21.334c-11.774,0 -21.334,-9.559 -21.334,-21.334l0,-88.892c0,-11.775 9.56,-21.334 21.334,-21.334c11.775,-0 21.334,9.559 21.334,21.334Zm248.899,-0l-0,88.892c-0,11.775 -9.56,21.334 -21.335,21.334c-11.774,0 -21.334,-9.559 -21.334,-21.334l0,-88.892c0,-11.775 9.56,-21.334 21.334,-21.334c11.775,-0 21.335,9.559 21.335,21.334Zm-240.95,-25.204c0.042,-32.796 19.593,-61.404 48.511,-76.464l-15.055,-27.161c-0.812,-1.464 -0.282,-3.311 1.182,-4.123c1.464,-0.811 3.311,-0.281 4.123,1.183l15.224,27.464c12.463,-5.537 26.433,-8.641 41.181,-8.641c14.749,0 28.719,3.104 41.182,8.641l15.224,-27.464c0.811,-1.464 2.659,-1.994 4.123,-1.183c1.464,0.812 1.993,2.659 1.182,4.123l-15.056,27.161c28.919,15.06 48.469,43.668 48.512,76.464l-190.333,0Zm51.243,-50.721c-4.387,0 -7.948,3.562 -7.948,7.948c0,4.387 3.561,7.948 7.948,7.948c4.387,0 7.948,-3.561 7.948,-7.948c0,-4.386 -3.561,-7.948 -7.948,-7.948Zm87.847,0c-4.387,0 -7.948,3.562 -7.948,7.948c-0,4.387 3.561,7.948 7.948,7.948c4.386,0 7.948,-3.561 7.948,-7.948c-0,-4.386 -3.562,-7.948 -7.948,-7.948Z" style="fill:#78b2bb;"/></svg>