<?xml version="1.0" encoding="UTF-8" standalone="no"?><!DOCTYPE svg PUBLIC "-//W3C//DTD SVG 1.1//EN" "http://www.w3.org/Graphics/SVG/1.1/DTD/svg11.dtd"><svg width="100%" height="100%" viewBox="0 0 800 251" version="1.1" xmlns="http://www.w3.org/2000/svg" xmlns:xlink="http://www.w3.org/1999/xlink" xml:space="preserve" xmlns:serif="http://www.serif.com/" style="fill-rule:evenodd;clip-rule:evenodd;stroke-linejoin:round;stroke-miterlimit:2;"><path id="k28" d="M643.507,165.328c-16.889,1.067 -32.392,1.989 -46.087,2.731c0,0 -0.616,-35.302 -0.85,-48.714c-0.023,-1.341 0.493,-2.635 1.433,-3.592c0.94,-0.957 2.225,-1.495 3.566,-1.495c9.208,-0 28.534,-0 37.742,-0c1.341,-0 2.626,0.538 3.566,1.495c0.94,0.957 1.456,2.251 1.433,3.592c-0.226,12.92 -0.803,45.983 -0.803,45.983Z" style="fill:#ebebeb;"/><path id="k08" d="M594.832,19.792c3.191,-19.735 17.665,-24.67 51.477,-14.99c0,0 -0.666,38.182 -0.907,51.995c-0.048,2.727 -2.272,4.913 -5,4.913c-9.524,0 -30.399,0 -39.924,0c-2.728,0 -4.952,-2.186 -5,-4.913c-0.193,-11.07 -0.646,-37.005 -0.646,-37.005Z" style="fill:#ebebeb;"/><path id="k16" d="M545.691,155.506c-30.217,-6.438 -64.493,-22.761 -82.765,-56.436c-1.931,-3.559 -0.678,-6.869 5.235,-7.321c1.506,-0.115 52.4,-3.623 68.849,-4.756c1.337,-0.093 2.656,0.356 3.659,1.244c1.004,0.889 1.609,2.143 1.679,3.482c0.834,15.916 3.343,63.787 3.343,63.787Z" style="fill:#ebebeb;"/><path id="k07" d="M541.705,22.135c19.303,-2.56 37.648,-1.261 50.159,-0.51c-0,0 0.509,29.177 0.716,41.025c0.048,2.727 -2.099,4.989 -4.825,5.084c-9.297,0.325 -29.372,1.026 -38.67,1.351c-2.725,0.095 -5.024,-2.012 -5.167,-4.735c-0.633,-12.068 -2.213,-42.215 -2.213,-42.215Z" style="fill:#ebebeb;"/><path id="k17" d="M549.417,72.075c-1.34,0.047 -2.606,0.63 -3.512,1.619c-0.906,0.989 -1.377,2.3 -1.307,3.64c0.472,9.001 1.449,27.634 1.914,36.509c0.142,2.724 2.442,4.831 5.167,4.735c8.982,-0.313 27.959,-0.976 36.941,-1.29c2.726,-0.095 4.873,-2.357 4.825,-5.084c-0.155,-8.886 -0.481,-27.541 -0.638,-36.554c-0.023,-1.341 -0.585,-2.616 -1.557,-3.539c-0.973,-0.924 -2.276,-1.417 -3.617,-1.37c-9.294,0.324 -28.922,1.01 -38.216,1.334Z" style="fill:#ebebeb;"/><path id="k37" d="M532.674,184.285c-0,0 8.446,26.591 13.112,41.278c1.665,5.242 7.251,8.155 12.502,6.521c13.119,-4.083 35.193,-10.953 35.193,-10.953c-0,-0 -7.534,-26.492 -11.767,-41.377c-0.737,-2.593 -2.489,-4.777 -4.859,-6.06c-2.37,-1.283 -5.158,-1.554 -7.731,-0.753c-13.57,4.223 -36.45,11.344 -36.45,11.344Z" style="fill:#ebebeb;"/><path id="k36" d="M483.663,200.127c-0,-0 9.369,26.279 14.545,40.795c1.847,5.18 7.531,7.897 12.722,6.08c12.968,-4.538 34.789,-12.174 34.789,-12.174c-0,-0 -8.454,-26.214 -13.203,-40.942c-0.828,-2.565 -2.655,-4.687 -5.069,-5.886c-2.413,-1.199 -5.208,-1.373 -7.752,-0.483c-13.414,4.694 -36.032,12.61 -36.032,12.61Z" style="fill:#ebebeb;"/><path id="k27" d="M594.423,168.22c-19.129,1.021 -34.527,1.672 -44.964,1.859c-0,0 -1.617,-30.842 -2.267,-43.252c-0.07,-1.339 0.401,-2.65 1.307,-3.639c0.906,-0.989 2.171,-1.572 3.512,-1.619c8.973,-0.314 27.514,-0.961 36.487,-1.274c1.341,-0.047 2.644,0.446 3.616,1.37c0.973,0.923 1.535,2.198 1.558,3.539c0.216,12.37 0.751,43.016 0.751,43.016Z" style="fill:#ebebeb;"/><path id="k06" d="M541.668,78.74c0.143,2.724 -1.924,5.059 -4.645,5.25c-15.107,1.056 -59.944,4.191 -59.944,4.191c-3.451,-1.917 -8.018,-4.476 -10.886,-6.17c-2.731,-1.613 -4.176,-4.494 -2.108,-7.123c10.275,-13.065 24.964,-33.644 38.795,-40.984c11.437,-6.07 23.777,-9.498 35.844,-11.344c-0,0 2.184,41.674 2.944,56.18Z" style="fill:#ebebeb;"/><path id="k18" d="M600.705,64.71c-1.342,0 -2.627,0.539 -3.567,1.496c-0.94,0.956 -1.456,2.25 -1.433,3.591c0.158,9.011 0.483,27.663 0.638,36.548c0.048,2.727 2.272,4.913 4.999,4.913c9.213,-0 28.983,-0 38.196,-0c2.727,-0 4.951,-2.186 4.999,-4.913c0.155,-8.885 0.48,-27.537 0.638,-36.548c0.023,-1.341 -0.493,-2.635 -1.433,-3.591c-0.94,-0.957 -2.225,-1.496 -3.566,-1.496c-9.526,0 -29.946,0 -39.471,0Z" style="fill:#ebebeb;"/><path id="k09" d="M649.294,5.68c16.716,5.037 37.906,13.415 64.453,25.116c-0,-0 -12.042,26.27 -16.196,35.331c-0.841,1.835 -2.703,2.984 -4.72,2.914c-8.3,-0.29 -29.938,-1.046 -39.705,-1.387c-2.726,-0.095 -4.872,-2.357 -4.825,-5.084c0.256,-14.628 0.993,-56.89 0.993,-56.89Z" style="fill:#ebebeb;"/><path id="k19" d="M647.437,112.082c-0.047,2.727 2.099,4.989 4.825,5.084c9.023,0.315 28.141,0.982 37.164,1.298c2.725,0.095 5.024,-2.012 5.167,-4.736c0.465,-8.867 1.44,-27.474 1.911,-36.467c0.071,-1.339 -0.4,-2.651 -1.306,-3.639c-0.906,-0.989 -2.172,-1.573 -3.512,-1.62c-9.335,-0.325 -29.103,-1.016 -38.438,-1.342c-1.34,-0.047 -2.643,0.447 -3.616,1.37c-0.973,0.924 -1.534,2.199 -1.558,3.54c-0.157,9.004 -0.482,27.633 -0.637,36.512Z" style="fill:#ebebeb;"/><path id="k1a" d="M704.633,57.876c9.479,4.543 28.022,14.27 43.567,23.445c-0,-0 -2.602,29.737 -3.649,41.697c-0.237,2.717 -2.609,4.742 -5.329,4.552c-9.043,-0.633 -28.251,-1.976 -37.294,-2.608c-2.721,-0.19 -4.787,-2.526 -4.644,-5.25c0.721,-13.76 2.71,-51.715 2.71,-51.715l4.639,-10.121Z" style="fill:#ebebeb;"/><path id="k2a" d="M694.424,174.282c-0,-0 1.545,-29.492 2.179,-41.585c0.07,-1.34 0.676,-2.595 1.68,-3.484c1.005,-0.888 2.324,-1.336 3.662,-1.243c9.035,0.632 27.806,1.945 36.841,2.577c1.338,0.093 2.582,0.72 3.453,1.74c0.871,1.02 1.296,2.347 1.179,3.683c-1.056,12.075 -3.634,41.539 -3.634,41.539c-5.007,-0.355 -25.475,-1.811 -45.36,-3.227Z" style="fill:#ebebeb;"/><path id="k29" d="M646.586,165.133c-0,-0 0.446,-28.235 0.633,-40.043c0.021,-1.342 0.581,-2.62 1.554,-3.545c0.973,-0.925 2.278,-1.42 3.619,-1.373c9.018,0.315 27.69,0.967 36.702,1.282c1.34,0.047 2.606,0.63 3.512,1.619c0.906,0.989 1.377,2.3 1.307,3.639c-0.69,13.164 -2.482,47.357 -2.482,47.357c-18.881,-1.345 -36.491,-2.603 -38.876,-2.782c-3.249,-0.244 -5.982,-3.292 -5.969,-6.154Z" style="fill:#ebebeb;"/><path id="k1b" d="M751.19,81.557c12.384,-4.361 25.709,-8.049 31.22,-9.336c5.305,-1.239 10.661,-0.326 12.474,3.644c8.221,18.002 7.036,54.127 -7.229,76.235c-6.58,10.198 -14.394,8.529 -16.903,7.043c-2.599,-1.539 -19.457,-11.945 -25.005,-15.372l5.443,-62.214Z" style="fill:#ebebeb;"/><path id="k23" d="M156.493,165.328c16.889,1.067 32.392,1.989 46.087,2.731c-0,0 0.616,-35.302 0.85,-48.714c0.023,-1.341 -0.493,-2.635 -1.433,-3.592c-0.94,-0.957 -2.225,-1.495 -3.566,-1.495c-9.208,-0 -28.534,-0 -37.742,-0c-1.341,-0 -2.626,0.538 -3.566,1.495c-0.94,0.957 -1.456,2.251 -1.433,3.592c0.226,12.92 0.803,45.983 0.803,45.983Z" style="fill:#ebebeb;"/><path id="k03" d="M205.168,19.792c-3.191,-19.735 -17.665,-24.67 -51.477,-14.99c-0,0 0.666,38.182 0.907,51.995c0.048,2.727 2.272,4.913 5,4.913c9.524,0 30.399,0 39.924,0c2.728,0 4.952,-2.186 5,-4.913c0.193,-11.07 0.646,-37.005 0.646,-37.005Z" style="fill:#ebebeb;"/><path id="k15" d="M254.309,155.506c30.217,-6.438 64.493,-22.761 82.765,-56.436c1.931,-3.559 0.678,-6.869 -5.235,-7.321c-1.506,-0.115 -52.4,-3.623 -68.849,-4.756c-1.337,-0.093 -2.656,0.356 -3.659,1.244c-1.004,0.889 -1.609,2.143 -1.679,3.482c-0.834,15.916 -3.343,63.787 -3.343,63.787Z" style="fill:#ebebeb;"/><path id="k04" d="M258.295,22.135c-19.303,-2.56 -37.648,-1.261 -50.159,-0.51c0,0 -0.509,29.177 -0.716,41.025c-0.048,2.727 2.099,4.989 4.825,5.084c9.297,0.325 29.372,1.026 38.67,1.351c2.725,0.095 5.024,-2.012 5.167,-4.735c0.633,-12.068 2.213,-42.215 2.213,-42.215Z" style="fill:#ebebeb;"/><path id="k14" d="M250.583,72.075c1.34,0.047 2.606,0.63 3.512,1.619c0.906,0.989 1.377,2.3 1.307,3.64c-0.472,9.001 -1.449,27.634 -1.914,36.509c-0.142,2.724 -2.442,4.831 -5.167,4.735c-8.982,-0.313 -27.959,-0.976 -36.941,-1.29c-2.726,-0.095 -4.873,-2.357 -4.825,-5.084c0.155,-8.886 0.481,-27.541 0.638,-36.554c0.023,-1.341 0.585,-2.616 1.557,-3.539c0.973,-0.924 2.276,-1.417 3.617,-1.37c9.294,0.324 28.922,1.01 38.216,1.334Z" style="fill:#ebebeb;"/><path id="k34" d="M267.326,184.285c0,0 -8.446,26.591 -13.112,41.278c-1.665,5.242 -7.251,8.155 -12.502,6.521c-13.119,-4.083 -35.193,-10.953 -35.193,-10.953c0,-0 7.534,-26.492 11.767,-41.377c0.737,-2.593 2.489,-4.777 4.859,-6.06c2.37,-1.283 5.158,-1.554 7.731,-0.753c13.57,4.223 36.45,11.344 36.45,11.344Z" style="fill:#ebebeb;"/><path id="k35" d="M316.337,200.127c0,-0 -9.369,26.279 -14.545,40.795c-1.847,5.18 -7.531,7.897 -12.722,6.08c-12.968,-4.538 -34.789,-12.174 -34.789,-12.174c0,-0 8.454,-26.214 13.203,-40.942c0.828,-2.565 2.655,-4.687 5.069,-5.886c2.413,-1.199 5.208,-1.373 7.752,-0.483c13.414,4.694 36.032,12.61 36.032,12.61Z" style="fill:#ebebeb;"/><path id="k24" d="M205.577,168.22c19.129,1.021 34.527,1.672 44.964,1.859c0,0 1.617,-30.842 2.267,-43.252c0.07,-1.339 -0.401,-2.65 -1.307,-3.639c-0.906,-0.989 -2.171,-1.572 -3.512,-1.619c-8.973,-0.314 -27.514,-0.961 -36.487,-1.274c-1.341,-0.047 -2.644,0.446 -3.616,1.37c-0.973,0.923 -1.535,2.198 -1.558,3.539c-0.216,12.37 -0.751,43.016 -0.751,43.016Z" style="fill:#ebebeb;"/><path id="k05" d="M258.332,78.74c-0.143,2.724 1.924,5.059 4.645,5.25c15.107,1.056 59.944,4.191 59.944,4.191c3.451,-1.917 8.018,-4.476 10.886,-6.17c2.731,-1.613 4.176,-4.494 2.108,-7.123c-10.275,-13.065 -24.964,-33.644 -38.795,-40.984c-11.437,-6.07 -23.777,-9.498 -35.844,-11.344c0,0 -2.184,41.674 -2.944,56.18Z" style="fill:#ebebeb;"/><path id="k13" d="M199.295,64.71c1.342,0 2.627,0.539 3.567,1.496c0.94,0.956 1.456,2.25 1.433,3.591c-0.158,9.011 -0.483,27.663 -0.638,36.548c-0.048,2.727 -2.272,4.913 -4.999,4.913c-9.213,-0 -28.983,-0 -38.196,-0c-2.727,-0 -4.951,-2.186 -4.999,-4.913c-0.155,-8.885 -0.48,-27.537 -0.638,-36.548c-0.023,-1.341 0.493,-2.635 1.433,-3.591c0.94,-0.957 2.225,-1.496 3.566,-1.496c9.526,0 29.946,0 39.471,0Z" style="fill:#ebebeb;"/><path id="k02" d="M150.706,5.68c-16.716,5.037 -37.906,13.415 -64.453,25.116c0,-0 12.042,26.27 16.196,35.331c0.841,1.835 2.703,2.984 4.72,2.914c8.3,-0.29 29.938,-1.046 39.705,-1.387c2.726,-0.095 4.872,-2.357 4.825,-5.084c-0.256,-14.628 -0.993,-56.89 -0.993,-56.89Z" style="fill:#ebebeb;"/><path id="k12" d="M152.563,112.082c0.047,2.727 -2.099,4.989 -4.825,5.084c-9.023,0.315 -28.141,0.982 -37.164,1.298c-2.725,0.095 -5.024,-2.012 -5.167,-4.736c-0.465,-8.867 -1.44,-27.474 -1.911,-36.467c-0.071,-1.339 0.4,-2.651 1.306,-3.639c0.906,-0.989 2.172,-1.573 3.512,-1.62c9.335,-0.325 29.103,-1.016 38.438,-1.342c1.34,-0.047 2.643,0.447 3.616,1.37c0.973,0.924 1.534,2.199 1.558,3.54c0.157,9.004 0.482,27.633 0.637,36.512Z" style="fill:#ebebeb;"/><path id="k11" d="M95.367,57.876c-9.479,4.543 -28.022,14.27 -43.567,23.445c0,-0 2.602,29.737 3.649,41.697c0.237,2.717 2.609,4.742 5.329,4.552c9.043,-0.633 28.251,-1.976 37.294,-2.608c2.721,-0.19 4.787,-2.526 4.644,-5.25c-0.721,-13.76 -2.71,-51.715 -2.71,-51.715l-4.639,-10.121Z" style="fill:#ebebeb;"/><path id="k21" d="M105.576,174.282c0,-0 -1.545,-29.492 -2.179,-41.585c-0.07,-1.34 -0.676,-2.595 -1.68,-3.484c-1.005,-0.888 -2.324,-1.336 -3.662,-1.243c-9.035,0.632 -27.806,1.945 -36.841,2.577c-1.338,0.093 -2.582,0.72 -3.453,1.74c-0.871,1.02 -1.296,2.347 -1.179,3.683c1.056,12.075 3.634,41.539 3.634,41.539c5.007,-0.355 25.475,-1.811 45.36,-3.227Z" style="fill:#ebebeb;"/><path id="k22" d="M153.414,165.133c0,-0 -0.446,-28.235 -0.633,-40.043c-0.021,-1.342 -0.581,-2.62 -1.554,-3.545c-0.973,-0.925 -2.278,-1.42 -3.619,-1.373c-9.018,0.315 -27.69,0.967 -36.702,1.282c-1.34,0.047 -2.606,0.63 -3.512,1.619c-0.906,0.989 -1.377,2.3 -1.307,3.639c0.69,13.164 2.482,47.357 2.482,47.357c18.881,-1.345 36.491,-2.603 38.876,-2.782c3.249,-0.244 5.982,-3.292 5.969,-6.154Z" style="fill:#ebebeb;"/><path id="k10" d="M48.81,81.557c-12.384,-4.361 -25.709,-8.049 -31.22,-9.336c-5.305,-1.239 -10.661,-0.326 -12.474,3.644c-8.221,18.002 -7.036,54.127 7.229,76.235c6.58,10.198 14.394,8.529 16.903,7.043c2.599,-1.539 19.457,-11.945 25.005,-15.372l-5.443,-62.214Z" style="fill:#ebebeb;"/></svg>